<?xml version="1.0" encoding="UTF-8" standalone="no"?>
<!DOCTYPE svg PUBLIC "-//W3C//DTD SVG 1.1//EN"
 "http://www.w3.org/Graphics/SVG/1.1/DTD/svg11.dtd">
<!-- Generated by graphviz version 2.42.4 (0)
 -->
<!-- Pages: 1 -->
<svg width="4280pt" height="443pt"
 viewBox="0.00 0.00 4280.00 443.00" xmlns="http://www.w3.org/2000/svg" xmlns:xlink="http://www.w3.org/1999/xlink">
<g id="graph0" class="graph" transform="scale(1 1) rotate(0) translate(4 439)">
<polygon fill="white" stroke="transparent" points="-4,4 -4,-439 4276,-439 4276,4 -4,4"/>
<!-- main -->
<g id="node1" class="node">
<title>main</title>
<polygon fill="lightgrey" stroke="black" points="987,-415 940,-415 940,-392 987,-392 987,-415"/>
<text text-anchor="middle" x="963.5" y="-399.8" font-family="Arial" font-size="14.00" fill="white">main</text>
</g>
<!-- wpa3_tester::RunStatus::RunStatus(int, char**) -->
<g id="node2" class="node">
<title>wpa3_tester::RunStatus::RunStatus(int, char**)</title>
<polygon fill="#0d0e73" stroke="#0d0e73" points="490,-332 315,-332 315,-269 490,-269 490,-332"/>
<text text-anchor="middle" x="402.5" y="-320" font-family="Arial" font-size="10.00" fill="#ffffff">wpa3_tester</text>
<text text-anchor="middle" x="402.5" y="-309" font-family="Arial" font-size="10.00" fill="#ffffff">wpa3_tester::RunStatus::RunStatus</text>
<text text-anchor="middle" x="402.5" y="-298" font-family="Arial" font-size="10.00" fill="#ffffff">0.30%</text>
<text text-anchor="middle" x="402.5" y="-287" font-family="Arial" font-size="10.00" fill="#ffffff">(0.00%)</text>
<text text-anchor="middle" x="402.5" y="-276" font-family="Arial" font-size="10.00" fill="#ffffff">1×</text>
</g>
<!-- main&#45;&gt;wpa3_tester::RunStatus::RunStatus(int, char**) -->
<g id="edge1" class="edge">
<title>main&#45;&gt;wpa3_tester::RunStatus::RunStatus(int, char**)</title>
<path fill="none" stroke="#0d0e73" stroke-width="0.5" d="M939.8,-400.38C870.53,-393.89 662.67,-372.2 494.5,-332 494.22,-331.93 493.95,-331.87 493.67,-331.8"/>
<polygon fill="#0d0e73" stroke="#0d0e73" stroke-width="0.5" points="493.75,-330.56 490.05,-330.91 493.16,-332.94 493.75,-330.56"/>
<text text-anchor="middle" x="664" y="-355" font-family="Times,serif" font-size="10.00" fill="#0d0e73">0.30%</text>
<text text-anchor="middle" x="664" y="-344" font-family="Times,serif" font-size="10.00" fill="#0d0e73">1×</text>
</g>
<!-- wpa3_tester::RunStatus::config_requirement() -->
<g id="node3" class="node">
<title>wpa3_tester::RunStatus::config_requirement()</title>
<polygon fill="#0d2d7c" stroke="#0d2d7c" points="710,-332 499,-332 499,-269 710,-269 710,-332"/>
<text text-anchor="middle" x="604.5" y="-320" font-family="Arial" font-size="10.00" fill="#ffffff">wpa3_tester</text>
<text text-anchor="middle" x="604.5" y="-309" font-family="Arial" font-size="10.00" fill="#ffffff">wpa3_tester::RunStatus::config_requirement</text>
<text text-anchor="middle" x="604.5" y="-298" font-family="Arial" font-size="10.00" fill="#ffffff">7.26%</text>
<text text-anchor="middle" x="604.5" y="-287" font-family="Arial" font-size="10.00" fill="#ffffff">(0.00%)</text>
<text text-anchor="middle" x="604.5" y="-276" font-family="Arial" font-size="10.00" fill="#ffffff">1×</text>
</g>
<!-- main&#45;&gt;wpa3_tester::RunStatus::config_requirement() -->
<g id="edge2" class="edge">
<title>main&#45;&gt;wpa3_tester::RunStatus::config_requirement()</title>
<path fill="none" stroke="#0d2d7c" stroke-width="0.5" d="M939.95,-395.87C894.8,-383.17 793.52,-354.68 713.98,-332.3"/>
<polygon fill="#0d2d7c" stroke="#0d2d7c" stroke-width="0.5" points="713.91,-331.01 710.21,-331.24 713.25,-333.37 713.91,-331.01"/>
<text text-anchor="middle" x="832" y="-355" font-family="Times,serif" font-size="10.00" fill="#0d2d7c">7.26%</text>
<text text-anchor="middle" x="832" y="-344" font-family="Times,serif" font-size="10.00" fill="#0d2d7c">1×</text>
</g>
<!-- wpa3_tester::RunStatus::config_validation() -->
<g id="node4" class="node">
<title>wpa3_tester::RunStatus::config_validation()</title>
<polygon fill="#0baa3f" stroke="#0baa3f" points="920,-332 719,-332 719,-269 920,-269 920,-332"/>
<text text-anchor="middle" x="819.5" y="-320" font-family="Arial" font-size="10.00" fill="#ffffff">wpa3_tester</text>
<text text-anchor="middle" x="819.5" y="-309" font-family="Arial" font-size="10.00" fill="#ffffff">wpa3_tester::RunStatus::config_validation</text>
<text text-anchor="middle" x="819.5" y="-298" font-family="Arial" font-size="10.00" fill="#ffffff">41.71%</text>
<text text-anchor="middle" x="819.5" y="-287" font-family="Arial" font-size="10.00" fill="#ffffff">(0.00%)</text>
<text text-anchor="middle" x="819.5" y="-276" font-family="Arial" font-size="10.00" fill="#ffffff">1×</text>
</g>
<!-- main&#45;&gt;wpa3_tester::RunStatus::config_validation() -->
<g id="edge3" class="edge">
<title>main&#45;&gt;wpa3_tester::RunStatus::config_validation()</title>
<path fill="none" stroke="#0baa3f" stroke-width="1.67" d="M948.36,-391.88C929.54,-378.68 896.49,-355.5 868.58,-335.92"/>
<polygon fill="#0baa3f" stroke="#0baa3f" stroke-width="1.67" points="869.69,-333.93 863.07,-332.06 867.08,-337.65 869.69,-333.93"/>
<text text-anchor="middle" x="923" y="-355" font-family="Times,serif" font-size="10.00" fill="#0baa3f">41.71%</text>
<text text-anchor="middle" x="923" y="-344" font-family="Times,serif" font-size="10.00" fill="#0baa3f">1×</text>
</g>
<!-- wpa3_tester::RunStatus::run_test() -->
<g id="node5" class="node">
<title>wpa3_tester::RunStatus::run_test()</title>
<polygon fill="#0b9e72" stroke="#0b9e72" points="1093.5,-332 929.5,-332 929.5,-269 1093.5,-269 1093.5,-332"/>
<text text-anchor="middle" x="1011.5" y="-320" font-family="Arial" font-size="10.00" fill="#ffffff">wpa3_tester</text>
<text text-anchor="middle" x="1011.5" y="-309" font-family="Arial" font-size="10.00" fill="#ffffff">wpa3_tester::RunStatus::run_test</text>
<text text-anchor="middle" x="1011.5" y="-298" font-family="Arial" font-size="10.00" fill="#ffffff">32.52%</text>
<text text-anchor="middle" x="1011.5" y="-287" font-family="Arial" font-size="10.00" fill="#ffffff">(0.00%)</text>
<text text-anchor="middle" x="1011.5" y="-276" font-family="Arial" font-size="10.00" fill="#ffffff">1×</text>
</g>
<!-- main&#45;&gt;wpa3_tester::RunStatus::run_test() -->
<g id="edge4" class="edge">
<title>main&#45;&gt;wpa3_tester::RunStatus::run_test()</title>
<path fill="none" stroke="#0b9e72" stroke-width="1.3" d="M968.64,-391.69C974.74,-378.85 985.23,-356.77 994.31,-337.67"/>
<polygon fill="#0b9e72" stroke="#0b9e72" stroke-width="1.3" points="996.18,-338.37 996.83,-332.37 992.58,-336.66 996.18,-338.37"/>
<text text-anchor="middle" x="1011" y="-355" font-family="Times,serif" font-size="10.00" fill="#0b9e72">32.52%</text>
<text text-anchor="middle" x="1011" y="-344" font-family="Times,serif" font-size="10.00" fill="#0b9e72">1×</text>
</g>
<!-- wpa3_tester::RunStatus::setup_test() -->
<g id="node6" class="node">
<title>wpa3_tester::RunStatus::setup_test()</title>
<polygon fill="#0d1676" stroke="#0d1676" points="1276.5,-332 1102.5,-332 1102.5,-269 1276.5,-269 1276.5,-332"/>
<text text-anchor="middle" x="1189.5" y="-320" font-family="Arial" font-size="10.00" fill="#ffffff">wpa3_tester</text>
<text text-anchor="middle" x="1189.5" y="-309" font-family="Arial" font-size="10.00" fill="#ffffff">wpa3_tester::RunStatus::setup_test</text>
<text text-anchor="middle" x="1189.5" y="-298" font-family="Arial" font-size="10.00" fill="#ffffff">2.15%</text>
<text text-anchor="middle" x="1189.5" y="-287" font-family="Arial" font-size="10.00" fill="#ffffff">(0.00%)</text>
<text text-anchor="middle" x="1189.5" y="-276" font-family="Arial" font-size="10.00" fill="#ffffff">1×</text>
</g>
<!-- main&#45;&gt;wpa3_tester::RunStatus::setup_test() -->
<g id="edge5" class="edge">
<title>main&#45;&gt;wpa3_tester::RunStatus::setup_test()</title>
<path fill="none" stroke="#0d1676" stroke-width="0.5" d="M970.61,-391.91C975.67,-385.2 983.04,-376.9 991.5,-372 1007.27,-362.87 1014.07,-368.32 1031.5,-363 1058.85,-354.65 1088.19,-343.79 1114.08,-333.51"/>
<polygon fill="#0d1676" stroke="#0d1676" stroke-width="0.5" points="1114.74,-334.57 1117.54,-332.13 1113.84,-332.29 1114.74,-334.57"/>
<text text-anchor="middle" x="1109" y="-355" font-family="Times,serif" font-size="10.00" fill="#0d1676">2.15%</text>
<text text-anchor="middle" x="1109" y="-344" font-family="Times,serif" font-size="10.00" fill="#0d1676">1×</text>
</g>
<!-- wpa3_tester::RunStatus::~RunStatus() -->
<g id="node7" class="node">
<title>wpa3_tester::RunStatus::~RunStatus()</title>
<polygon fill="#0d0e73" stroke="#0d0e73" points="1467,-332 1286,-332 1286,-269 1467,-269 1467,-332"/>
<text text-anchor="middle" x="1376.5" y="-320" font-family="Arial" font-size="10.00" fill="#ffffff">wpa3_tester</text>
<text text-anchor="middle" x="1376.5" y="-309" font-family="Arial" font-size="10.00" fill="#ffffff">wpa3_tester::RunStatus::~RunStatus</text>
<text text-anchor="middle" x="1376.5" y="-298" font-family="Arial" font-size="10.00" fill="#ffffff">0.23%</text>
<text text-anchor="middle" x="1376.5" y="-287" font-family="Arial" font-size="10.00" fill="#ffffff">(0.00%)</text>
<text text-anchor="middle" x="1376.5" y="-276" font-family="Arial" font-size="10.00" fill="#ffffff">1×</text>
</g>
<!-- main&#45;&gt;wpa3_tester::RunStatus::~RunStatus() -->
<g id="edge6" class="edge">
<title>main&#45;&gt;wpa3_tester::RunStatus::~RunStatus()</title>
<path fill="none" stroke="#0d0e73" stroke-width="0.5" d="M970.16,-391.77C975.12,-384.82 982.56,-376.29 991.5,-372 1018.61,-358.99 1096.7,-366.98 1126.5,-363 1195.7,-353.77 1212.91,-349.48 1280.5,-332 1281.06,-331.86 1281.61,-331.71 1282.17,-331.56"/>
<polygon fill="#0d0e73" stroke="#0d0e73" stroke-width="0.5" points="1282.81,-332.66 1285.88,-330.58 1282.18,-330.3 1282.81,-332.66"/>
<text text-anchor="middle" x="1261" y="-355" font-family="Times,serif" font-size="10.00" fill="#0d0e73">0.23%</text>
<text text-anchor="middle" x="1261" y="-344" font-family="Times,serif" font-size="10.00" fill="#0d0e73">1×</text>
</g>
<!-- wpa3_tester::RunStatus::parse_requirements[abi:cxx11]() -->
<g id="node16" class="node">
<title>wpa3_tester::RunStatus::parse_requirements[abi:cxx11]()</title>
<polygon fill="#0d0e73" stroke="#0d0e73" points="261,-229 0,-229 0,-166 261,-166 261,-229"/>
<text text-anchor="middle" x="130.5" y="-217" font-family="Arial" font-size="10.00" fill="#ffffff">wpa3_tester</text>
<text text-anchor="middle" x="130.5" y="-206" font-family="Arial" font-size="10.00" fill="#ffffff">wpa3_tester::RunStatus::parse_requirements[abi:cxx11]</text>
<text text-anchor="middle" x="130.5" y="-195" font-family="Arial" font-size="10.00" fill="#ffffff">0.25%</text>
<text text-anchor="middle" x="130.5" y="-184" font-family="Arial" font-size="10.00" fill="#ffffff">(0.00%)</text>
<text text-anchor="middle" x="130.5" y="-173" font-family="Arial" font-size="10.00" fill="#ffffff">1×</text>
</g>
<!-- wpa3_tester::RunStatus::config_requirement()&#45;&gt;wpa3_tester::RunStatus::parse_requirements[abi:cxx11]() -->
<g id="edge7" class="edge">
<title>wpa3_tester::RunStatus::config_requirement()&#45;&gt;wpa3_tester::RunStatus::parse_requirements[abi:cxx11]()</title>
<path fill="none" stroke="#0d0e73" stroke-width="0.5" d="M498.88,-270C497.41,-269.66 495.95,-269.33 494.5,-269 491.35,-268.29 268.67,-229.63 265.5,-229 265.23,-228.95 264.97,-228.89 264.7,-228.84"/>
<polygon fill="#0d0e73" stroke="#0d0e73" stroke-width="0.5" points="264.91,-227.63 261.24,-228.14 264.43,-230.03 264.91,-227.63"/>
<text text-anchor="middle" x="454" y="-252" font-family="Times,serif" font-size="10.00" fill="#0d0e73">0.25%</text>
<text text-anchor="middle" x="454" y="-241" font-family="Times,serif" font-size="10.00" fill="#0d0e73">1×</text>
</g>
<!-- wpa3_tester::RunStatus::scan_internal[abi:cxx11]() const -->
<g id="node17" class="node">
<title>wpa3_tester::RunStatus::scan_internal[abi:cxx11]() const</title>
<polygon fill="#0d1375" stroke="#0d1375" points="503,-229 270,-229 270,-166 503,-166 503,-229"/>
<text text-anchor="middle" x="386.5" y="-217" font-family="Arial" font-size="10.00" fill="#ffffff">wpa3_tester</text>
<text text-anchor="middle" x="386.5" y="-206" font-family="Arial" font-size="10.00" fill="#ffffff">wpa3_tester::RunStatus::scan_internal[abi:cxx11]</text>
<text text-anchor="middle" x="386.5" y="-195" font-family="Arial" font-size="10.00" fill="#ffffff">1.53%</text>
<text text-anchor="middle" x="386.5" y="-184" font-family="Arial" font-size="10.00" fill="#ffffff">(0.00%)</text>
<text text-anchor="middle" x="386.5" y="-173" font-family="Arial" font-size="10.00" fill="#ffffff">1×</text>
</g>
<!-- wpa3_tester::RunStatus::config_requirement()&#45;&gt;wpa3_tester::RunStatus::scan_internal[abi:cxx11]() const -->
<g id="edge8" class="edge">
<title>wpa3_tester::RunStatus::config_requirement()&#45;&gt;wpa3_tester::RunStatus::scan_internal[abi:cxx11]() const</title>
<path fill="none" stroke="#0d1375" stroke-width="0.5" d="M538.5,-268.92C512.37,-256.82 482.31,-242.89 455.86,-230.63"/>
<polygon fill="#0d1375" stroke="#0d1375" stroke-width="0.5" points="456.34,-229.51 452.65,-229.15 455.31,-231.73 456.34,-229.51"/>
<text text-anchor="middle" x="531" y="-252" font-family="Times,serif" font-size="10.00" fill="#0d1375">1.53%</text>
<text text-anchor="middle" x="531" y="-241" font-family="Times,serif" font-size="10.00" fill="#0d1375">1×</text>
</g>
<!-- wpa3_tester::cleanup_all_namespaces() -->
<g id="node18" class="node">
<title>wpa3_tester::cleanup_all_namespaces()</title>
<polygon fill="#0d1876" stroke="#0d1876" points="697,-229 512,-229 512,-166 697,-166 697,-229"/>
<text text-anchor="middle" x="604.5" y="-217" font-family="Arial" font-size="10.00" fill="#ffffff">wpa3_tester</text>
<text text-anchor="middle" x="604.5" y="-206" font-family="Arial" font-size="10.00" fill="#ffffff">wpa3_tester::cleanup_all_namespaces</text>
<text text-anchor="middle" x="604.5" y="-195" font-family="Arial" font-size="10.00" fill="#ffffff">2.78%</text>
<text text-anchor="middle" x="604.5" y="-184" font-family="Arial" font-size="10.00" fill="#ffffff">(0.00%)</text>
<text text-anchor="middle" x="604.5" y="-173" font-family="Arial" font-size="10.00" fill="#ffffff">1×</text>
</g>
<!-- wpa3_tester::RunStatus::config_requirement()&#45;&gt;wpa3_tester::cleanup_all_namespaces() -->
<g id="edge9" class="edge">
<title>wpa3_tester::RunStatus::config_requirement()&#45;&gt;wpa3_tester::cleanup_all_namespaces()</title>
<path fill="none" stroke="#0d1876" stroke-width="0.5" d="M604.5,-268.92C604.5,-257.56 604.5,-244.59 604.5,-232.9"/>
<polygon fill="#0d1876" stroke="#0d1876" stroke-width="0.5" points="605.73,-232.82 604.5,-229.32 603.28,-232.82 605.73,-232.82"/>
<text text-anchor="middle" x="620" y="-252" font-family="Times,serif" font-size="10.00" fill="#0d1876">2.78%</text>
<text text-anchor="middle" x="620" y="-241" font-family="Times,serif" font-size="10.00" fill="#0d1876">1×</text>
</g>
<!-- wpa3_tester::iface::cleanup() const -->
<g id="node19" class="node">
<title>wpa3_tester::iface::cleanup() const</title>
<polygon fill="#0d1174" stroke="#0d1174" points="843,-229 706,-229 706,-166 843,-166 843,-229"/>
<text text-anchor="middle" x="774.5" y="-217" font-family="Arial" font-size="10.00" fill="#ffffff">wpa3_tester</text>
<text text-anchor="middle" x="774.5" y="-206" font-family="Arial" font-size="10.00" fill="#ffffff">wpa3_tester::iface::cleanup</text>
<text text-anchor="middle" x="774.5" y="-195" font-family="Arial" font-size="10.00" fill="#ffffff">1.03%</text>
<text text-anchor="middle" x="774.5" y="-184" font-family="Arial" font-size="10.00" fill="#ffffff">(0.00%)</text>
<text text-anchor="middle" x="774.5" y="-173" font-family="Arial" font-size="10.00" fill="#ffffff">3×</text>
</g>
<!-- wpa3_tester::RunStatus::config_requirement()&#45;&gt;wpa3_tester::iface::cleanup() const -->
<g id="edge10" class="edge">
<title>wpa3_tester::RunStatus::config_requirement()&#45;&gt;wpa3_tester::iface::cleanup() const</title>
<path fill="none" stroke="#0d1174" stroke-width="0.5" d="M655.97,-268.92C676.1,-256.96 699.21,-243.23 719.66,-231.08"/>
<polygon fill="#0d1174" stroke="#0d1174" stroke-width="0.5" points="720.53,-231.99 722.91,-229.15 719.28,-229.88 720.53,-231.99"/>
<text text-anchor="middle" x="721" y="-252" font-family="Times,serif" font-size="10.00" fill="#0d1174">1.03%</text>
<text text-anchor="middle" x="721" y="-241" font-family="Times,serif" font-size="10.00" fill="#0d1174">3×</text>
</g>
<!-- wpa3_tester::yaml_to_json[abi:cxx11](YAML::Node const&amp;) -->
<g id="node20" class="node">
<title>wpa3_tester::yaml_to_json[abi:cxx11](YAML::Node const&amp;)</title>
<polygon fill="#0c6b8b" stroke="#0c6b8b" points="1033,-229 852,-229 852,-166 1033,-166 1033,-229"/>
<text text-anchor="middle" x="942.5" y="-217" font-family="Arial" font-size="10.00" fill="#ffffff">wpa3_tester</text>
<text text-anchor="middle" x="942.5" y="-206" font-family="Arial" font-size="10.00" fill="#ffffff">wpa3_tester::yaml_to_json[abi:cxx11]</text>
<text text-anchor="middle" x="942.5" y="-195" font-family="Arial" font-size="10.00" fill="#ffffff">18.71%</text>
<text text-anchor="middle" x="942.5" y="-184" font-family="Arial" font-size="10.00" fill="#ffffff">(0.00%)</text>
<text text-anchor="middle" x="942.5" y="-173" font-family="Arial" font-size="10.00" fill="#ffffff">3×</text>
</g>
<!-- wpa3_tester::RunStatus::config_validation()&#45;&gt;wpa3_tester::yaml_to_json[abi:cxx11](YAML::Node const&amp;) -->
<g id="edge11" class="edge">
<title>wpa3_tester::RunStatus::config_validation()&#45;&gt;wpa3_tester::yaml_to_json[abi:cxx11](YAML::Node const&amp;)</title>
<path fill="none" stroke="#0c6b8b" stroke-width="0.75" d="M856.74,-268.92C870.82,-257.36 886.92,-244.14 901.34,-232.3"/>
<polygon fill="#0c6b8b" stroke="#0c6b8b" stroke-width="0.75" points="902.6,-233.21 904.96,-229.32 900.69,-230.89 902.6,-233.21"/>
<text text-anchor="middle" x="911" y="-252" font-family="Times,serif" font-size="10.00" fill="#0c6b8b">18.71%</text>
<text text-anchor="middle" x="911" y="-241" font-family="Times,serif" font-size="10.00" fill="#0c6b8b">3×</text>
</g>
<!-- wpa3_tester::RunStatus::save_actor_interface_mapping() -->
<g id="node21" class="node">
<title>wpa3_tester::RunStatus::save_actor_interface_mapping()</title>
<polygon fill="#0d0e73" stroke="#0d0e73" points="1320,-229 1059,-229 1059,-166 1320,-166 1320,-229"/>
<text text-anchor="middle" x="1189.5" y="-217" font-family="Arial" font-size="10.00" fill="#ffffff">wpa3_tester</text>
<text text-anchor="middle" x="1189.5" y="-206" font-family="Arial" font-size="10.00" fill="#ffffff">wpa3_tester::RunStatus::save_actor_interface_mapping</text>
<text text-anchor="middle" x="1189.5" y="-195" font-family="Arial" font-size="10.00" fill="#ffffff">0.39%</text>
<text text-anchor="middle" x="1189.5" y="-184" font-family="Arial" font-size="10.00" fill="#ffffff">(0.00%)</text>
<text text-anchor="middle" x="1189.5" y="-173" font-family="Arial" font-size="10.00" fill="#ffffff">1×</text>
</g>
<!-- wpa3_tester::RunStatus::setup_test()&#45;&gt;wpa3_tester::RunStatus::save_actor_interface_mapping() -->
<g id="edge13" class="edge">
<title>wpa3_tester::RunStatus::setup_test()&#45;&gt;wpa3_tester::RunStatus::save_actor_interface_mapping()</title>
<path fill="none" stroke="#0d0e73" stroke-width="0.5" d="M1189.5,-268.92C1189.5,-257.56 1189.5,-244.59 1189.5,-232.9"/>
<polygon fill="#0d0e73" stroke="#0d0e73" stroke-width="0.5" points="1190.73,-232.82 1189.5,-229.32 1188.28,-232.82 1190.73,-232.82"/>
<text text-anchor="middle" x="1205" y="-252" font-family="Times,serif" font-size="10.00" fill="#0d0e73">0.39%</text>
<text text-anchor="middle" x="1205" y="-241" font-family="Times,serif" font-size="10.00" fill="#0d0e73">1×</text>
</g>
<!-- wpa3_tester::Actor_config::Actor_config(wpa3_tester::Actor_config const&amp;) -->
<g id="node8" class="node">
<title>wpa3_tester::Actor_config::Actor_config(wpa3_tester::Actor_config const&amp;)</title>
<polygon fill="#0d0d73" stroke="#0d0d73" points="1187,-435 996,-435 996,-372 1187,-372 1187,-435"/>
<text text-anchor="middle" x="1091.5" y="-423" font-family="Arial" font-size="10.00" fill="#ffffff">wpa3_tester</text>
<text text-anchor="middle" x="1091.5" y="-412" font-family="Arial" font-size="10.00" fill="#ffffff">wpa3_tester::Actor_config::Actor_config</text>
<text text-anchor="middle" x="1091.5" y="-401" font-family="Arial" font-size="10.00" fill="#ffffff">0.05%</text>
<text text-anchor="middle" x="1091.5" y="-390" font-family="Arial" font-size="10.00" fill="#ffffff">(0.00%)</text>
<text text-anchor="middle" x="1091.5" y="-379" font-family="Arial" font-size="10.00" fill="#ffffff">3×</text>
</g>
<!-- wpa3_tester::Actor_config::matches(wpa3_tester::Actor_config const&amp;) -->
<g id="node9" class="node">
<title>wpa3_tester::Actor_config::matches(wpa3_tester::Actor_config const&amp;)</title>
<polygon fill="#0d0d73" stroke="#0d0d73" points="1370.5,-435 1196.5,-435 1196.5,-372 1370.5,-372 1370.5,-435"/>
<text text-anchor="middle" x="1283.5" y="-423" font-family="Arial" font-size="10.00" fill="#ffffff">wpa3_tester</text>
<text text-anchor="middle" x="1283.5" y="-412" font-family="Arial" font-size="10.00" fill="#ffffff">wpa3_tester::Actor_config::matches</text>
<text text-anchor="middle" x="1283.5" y="-401" font-family="Arial" font-size="10.00" fill="#ffffff">0.02%</text>
<text text-anchor="middle" x="1283.5" y="-390" font-family="Arial" font-size="10.00" fill="#ffffff">(0.00%)</text>
<text text-anchor="middle" x="1283.5" y="-379" font-family="Arial" font-size="10.00" fill="#ffffff">4×</text>
</g>
<!-- wpa3_tester::Actor_config::~Actor_config() -->
<g id="node10" class="node">
<title>wpa3_tester::Actor_config::~Actor_config()</title>
<polygon fill="#0d0d73" stroke="#0d0d73" points="1577,-435 1380,-435 1380,-372 1577,-372 1577,-435"/>
<text text-anchor="middle" x="1478.5" y="-423" font-family="Arial" font-size="10.00" fill="#ffffff">wpa3_tester</text>
<text text-anchor="middle" x="1478.5" y="-412" font-family="Arial" font-size="10.00" fill="#ffffff">wpa3_tester::Actor_config::~Actor_config</text>
<text text-anchor="middle" x="1478.5" y="-401" font-family="Arial" font-size="10.00" fill="#ffffff">0.07%</text>
<text text-anchor="middle" x="1478.5" y="-390" font-family="Arial" font-size="10.00" fill="#ffffff">(0.00%)</text>
<text text-anchor="middle" x="1478.5" y="-379" font-family="Arial" font-size="10.00" fill="#ffffff">9×</text>
</g>
<!-- wpa3_tester::InterfaceInfo::InterfaceInfo(wpa3_tester::InterfaceInfo&amp;&amp;) -->
<g id="node11" class="node">
<title>wpa3_tester::InterfaceInfo::InterfaceInfo(wpa3_tester::InterfaceInfo&amp;&amp;)</title>
<polygon fill="#0d0d73" stroke="#0d0d73" points="1777,-435 1586,-435 1586,-372 1777,-372 1777,-435"/>
<text text-anchor="middle" x="1681.5" y="-423" font-family="Arial" font-size="10.00" fill="#ffffff">wpa3_tester</text>
<text text-anchor="middle" x="1681.5" y="-412" font-family="Arial" font-size="10.00" fill="#ffffff">wpa3_tester::InterfaceInfo::InterfaceInfo</text>
<text text-anchor="middle" x="1681.5" y="-401" font-family="Arial" font-size="10.00" fill="#ffffff">0.02%</text>
<text text-anchor="middle" x="1681.5" y="-390" font-family="Arial" font-size="10.00" fill="#ffffff">(0.00%)</text>
<text text-anchor="middle" x="1681.5" y="-379" font-family="Arial" font-size="10.00" fill="#ffffff">29×</text>
</g>
<!-- wpa3_tester::ProcessManager::ProcessLogs::~ProcessLogs() -->
<g id="node12" class="node">
<title>wpa3_tester::ProcessManager::ProcessLogs::~ProcessLogs()</title>
<polygon fill="#0d0d73" stroke="#0d0d73" points="2067,-435 1786,-435 1786,-372 2067,-372 2067,-435"/>
<text text-anchor="middle" x="1926.5" y="-423" font-family="Arial" font-size="10.00" fill="#ffffff">wpa3_tester</text>
<text text-anchor="middle" x="1926.5" y="-412" font-family="Arial" font-size="10.00" fill="#ffffff">wpa3_tester::ProcessManager::ProcessLogs::~ProcessLogs</text>
<text text-anchor="middle" x="1926.5" y="-401" font-family="Arial" font-size="10.00" fill="#ffffff">0.02%</text>
<text text-anchor="middle" x="1926.5" y="-390" font-family="Arial" font-size="10.00" fill="#ffffff">(0.00%)</text>
<text text-anchor="middle" x="1926.5" y="-379" font-family="Arial" font-size="10.00" fill="#ffffff">3×</text>
</g>
<!-- wpa3_tester::ProcessManager::ProcessManager() -->
<g id="node13" class="node">
<title>wpa3_tester::ProcessManager::ProcessManager()</title>
<polygon fill="#0d0d73" stroke="#0d0d73" points="2305,-435 2076,-435 2076,-372 2305,-372 2305,-435"/>
<text text-anchor="middle" x="2190.5" y="-423" font-family="Arial" font-size="10.00" fill="#ffffff">wpa3_tester</text>
<text text-anchor="middle" x="2190.5" y="-412" font-family="Arial" font-size="10.00" fill="#ffffff">wpa3_tester::ProcessManager::ProcessManager</text>
<text text-anchor="middle" x="2190.5" y="-401" font-family="Arial" font-size="10.00" fill="#ffffff">0.01%</text>
<text text-anchor="middle" x="2190.5" y="-390" font-family="Arial" font-size="10.00" fill="#ffffff">(0.00%)</text>
<text text-anchor="middle" x="2190.5" y="-379" font-family="Arial" font-size="10.00" fill="#ffffff">1×</text>
</g>
<!-- wpa3_tester::ProcessManager::WaitListener::~WaitListener() -->
<g id="node14" class="node">
<title>wpa3_tester::ProcessManager::WaitListener::~WaitListener()</title>
<polygon fill="#0d0d73" stroke="#0d0d73" points="2589,-435 2314,-435 2314,-372 2589,-372 2589,-435"/>
<text text-anchor="middle" x="2451.5" y="-423" font-family="Arial" font-size="10.00" fill="#ffffff">wpa3_tester</text>
<text text-anchor="middle" x="2451.5" y="-412" font-family="Arial" font-size="10.00" fill="#ffffff">wpa3_tester::ProcessManager::WaitListener::~WaitListener</text>
<text text-anchor="middle" x="2451.5" y="-401" font-family="Arial" font-size="10.00" fill="#ffffff">0.01%</text>
<text text-anchor="middle" x="2451.5" y="-390" font-family="Arial" font-size="10.00" fill="#ffffff">(0.00%)</text>
<text text-anchor="middle" x="2451.5" y="-379" font-family="Arial" font-size="10.00" fill="#ffffff">3×</text>
</g>
<!-- wpa3_tester::ProcessManager::~ProcessManager() -->
<g id="node15" class="node">
<title>wpa3_tester::ProcessManager::~ProcessManager()</title>
<polygon fill="#0d0d73" stroke="#0d0d73" points="2833,-435 2598,-435 2598,-372 2833,-372 2833,-435"/>
<text text-anchor="middle" x="2715.5" y="-423" font-family="Arial" font-size="10.00" fill="#ffffff">wpa3_tester</text>
<text text-anchor="middle" x="2715.5" y="-412" font-family="Arial" font-size="10.00" fill="#ffffff">wpa3_tester::ProcessManager::~ProcessManager</text>
<text text-anchor="middle" x="2715.5" y="-401" font-family="Arial" font-size="10.00" fill="#ffffff">0.03%</text>
<text text-anchor="middle" x="2715.5" y="-390" font-family="Arial" font-size="10.00" fill="#ffffff">(0.00%)</text>
<text text-anchor="middle" x="2715.5" y="-379" font-family="Arial" font-size="10.00" fill="#ffffff">1×</text>
</g>
<!-- wpa3_tester::hw_capabilities::list_interfaces(wpa3_tester::RunStatus const&amp;) -->
<g id="node22" class="node">
<title>wpa3_tester::hw_capabilities::list_interfaces(wpa3_tester::RunStatus const&amp;)</title>
<polygon fill="#0d1074" stroke="#0d1074" points="491,-126 282,-126 282,-63 491,-63 491,-126"/>
<text text-anchor="middle" x="386.5" y="-114" font-family="Arial" font-size="10.00" fill="#ffffff">wpa3_tester</text>
<text text-anchor="middle" x="386.5" y="-103" font-family="Arial" font-size="10.00" fill="#ffffff">wpa3_tester::hw_capabilities::list_interfaces</text>
<text text-anchor="middle" x="386.5" y="-92" font-family="Arial" font-size="10.00" fill="#ffffff">0.81%</text>
<text text-anchor="middle" x="386.5" y="-81" font-family="Arial" font-size="10.00" fill="#ffffff">(0.01%)</text>
<text text-anchor="middle" x="386.5" y="-70" font-family="Arial" font-size="10.00" fill="#ffffff">1×</text>
</g>
<!-- wpa3_tester::RunStatus::scan_internal[abi:cxx11]() const&#45;&gt;wpa3_tester::hw_capabilities::list_interfaces(wpa3_tester::RunStatus const&amp;) -->
<g id="edge12" class="edge">
<title>wpa3_tester::RunStatus::scan_internal[abi:cxx11]() const&#45;&gt;wpa3_tester::hw_capabilities::list_interfaces(wpa3_tester::RunStatus const&amp;)</title>
<path fill="none" stroke="#0d1074" stroke-width="0.5" d="M386.5,-165.92C386.5,-154.56 386.5,-141.59 386.5,-129.9"/>
<polygon fill="#0d1074" stroke="#0d1074" stroke-width="0.5" points="387.73,-129.82 386.5,-126.32 385.28,-129.82 387.73,-129.82"/>
<text text-anchor="middle" x="402" y="-149" font-family="Times,serif" font-size="10.00" fill="#0d1074">0.81%</text>
<text text-anchor="middle" x="402" y="-138" font-family="Times,serif" font-size="10.00" fill="#0d1074">1×</text>
</g>
<!-- wpa3_tester::yaml_to_json[abi:cxx11](YAML::Node const&amp;)&#39;2 -->
<g id="node34" class="node">
<title>wpa3_tester::yaml_to_json[abi:cxx11](YAML::Node const&amp;)&#39;2</title>
<polygon fill="#0c688a" stroke="#0c688a" points="1036.5,-126 848.5,-126 848.5,-63 1036.5,-63 1036.5,-126"/>
<text text-anchor="middle" x="942.5" y="-114" font-family="Arial" font-size="10.00" fill="#ffffff">wpa3_tester</text>
<text text-anchor="middle" x="942.5" y="-103" font-family="Arial" font-size="10.00" fill="#ffffff">wpa3_tester::yaml_to_json[abi:cxx11]&#39;2</text>
<text text-anchor="middle" x="942.5" y="-92" font-family="Arial" font-size="10.00" fill="#ffffff">18.27%</text>
<text text-anchor="middle" x="942.5" y="-81" font-family="Arial" font-size="10.00" fill="#ffffff">(0.03%)</text>
<text text-anchor="middle" x="942.5" y="-70" font-family="Arial" font-size="10.00" fill="#ffffff">181×</text>
</g>
<!-- wpa3_tester::yaml_to_json[abi:cxx11](YAML::Node const&amp;)&#45;&gt;wpa3_tester::yaml_to_json[abi:cxx11](YAML::Node const&amp;)&#39;2 -->
<g id="edge17" class="edge">
<title>wpa3_tester::yaml_to_json[abi:cxx11](YAML::Node const&amp;)&#45;&gt;wpa3_tester::yaml_to_json[abi:cxx11](YAML::Node const&amp;)&#39;2</title>
<path fill="none" stroke="#0c688a" stroke-width="0.73" d="M942.5,-165.92C942.5,-154.85 942.5,-142.26 942.5,-130.81"/>
<polygon fill="#0c688a" stroke="#0c688a" stroke-width="0.73" points="944.01,-130.62 942.5,-126.32 941,-130.62 944.01,-130.62"/>
<text text-anchor="middle" x="961" y="-149" font-family="Times,serif" font-size="10.00" fill="#0c688a">18.27%</text>
<text text-anchor="middle" x="961" y="-138" font-family="Times,serif" font-size="10.00" fill="#0c688a">19×</text>
</g>
<!-- _3986b3ef1234f46f713989203aa2ea60a7da188c -->
<g id="node24" class="node">
<title>_3986b3ef1234f46f713989203aa2ea60a7da188c</title>
<polygon fill="lightgrey" stroke="black" points="542.5,-23 230.5,-23 230.5,0 542.5,0 542.5,-23"/>
<text text-anchor="middle" x="386.5" y="-7.8" font-family="Arial" font-size="14.00" fill="white">_3986b3ef1234f46f713989203aa2ea60a7da188c</text>
</g>
<!-- wpa3_tester::hw_capabilities::list_interfaces(wpa3_tester::RunStatus const&amp;)&#45;&gt;_3986b3ef1234f46f713989203aa2ea60a7da188c -->
<g id="edge14" class="edge">
<title>wpa3_tester::hw_capabilities::list_interfaces(wpa3_tester::RunStatus const&amp;)&#45;&gt;_3986b3ef1234f46f713989203aa2ea60a7da188c</title>
<path fill="none" stroke="#0d0d73" stroke-width="0.5" d="M386.5,-62.88C386.5,-50.43 386.5,-36.65 386.5,-26.66"/>
<polygon fill="#0d0d73" stroke="#0d0d73" stroke-width="0.5" points="387.73,-26.66 386.5,-23.16 385.28,-26.66 387.73,-26.66"/>
<text text-anchor="middle" x="402" y="-46" font-family="Times,serif" font-size="10.00" fill="#0d0d73">0.12%</text>
<text text-anchor="middle" x="402" y="-35" font-family="Times,serif" font-size="10.00" fill="#0d0d73">15×</text>
</g>
<!-- wpa3_tester::current_timestamp[abi:cxx11]() -->
<g id="node23" class="node">
<title>wpa3_tester::current_timestamp[abi:cxx11]()</title>
<polygon fill="#0d0f73" stroke="#0d0f73" points="3046.5,-435 2842.5,-435 2842.5,-372 3046.5,-372 3046.5,-435"/>
<text text-anchor="middle" x="2944.5" y="-423" font-family="Arial" font-size="10.00" fill="#ffffff">wpa3_tester</text>
<text text-anchor="middle" x="2944.5" y="-412" font-family="Arial" font-size="10.00" fill="#ffffff">wpa3_tester::current_timestamp[abi:cxx11]</text>
<text text-anchor="middle" x="2944.5" y="-401" font-family="Arial" font-size="10.00" fill="#ffffff">0.50%</text>
<text text-anchor="middle" x="2944.5" y="-390" font-family="Arial" font-size="10.00" fill="#ffffff">(0.01%)</text>
<text text-anchor="middle" x="2944.5" y="-379" font-family="Arial" font-size="10.00" fill="#ffffff">124×</text>
</g>
<!-- wpa3_tester::hw_capabilities::nl80211_cb(nl_msg*, void*) -->
<g id="node25" class="node">
<title>wpa3_tester::hw_capabilities::nl80211_cb(nl_msg*, void*)</title>
<polygon fill="#0d0d73" stroke="#0d0d73" points="3253,-435 3056,-435 3056,-372 3253,-372 3253,-435"/>
<text text-anchor="middle" x="3154.5" y="-423" font-family="Arial" font-size="10.00" fill="#ffffff">wpa3_tester</text>
<text text-anchor="middle" x="3154.5" y="-412" font-family="Arial" font-size="10.00" fill="#ffffff">wpa3_tester::hw_capabilities::nl80211_cb</text>
<text text-anchor="middle" x="3154.5" y="-401" font-family="Arial" font-size="10.00" fill="#ffffff">0.04%</text>
<text text-anchor="middle" x="3154.5" y="-390" font-family="Arial" font-size="10.00" fill="#ffffff">(0.00%)</text>
<text text-anchor="middle" x="3154.5" y="-379" font-family="Arial" font-size="10.00" fill="#ffffff">3×</text>
</g>
<!-- wpa3_tester::iface::set_channel(int) const -->
<g id="node26" class="node">
<title>wpa3_tester::iface::set_channel(int) const</title>
<polygon fill="#0d0d73" stroke="#0d0d73" points="3417,-435 3262,-435 3262,-372 3417,-372 3417,-435"/>
<text text-anchor="middle" x="3339.5" y="-423" font-family="Arial" font-size="10.00" fill="#ffffff">wpa3_tester</text>
<text text-anchor="middle" x="3339.5" y="-412" font-family="Arial" font-size="10.00" fill="#ffffff">wpa3_tester::iface::set_channel</text>
<text text-anchor="middle" x="3339.5" y="-401" font-family="Arial" font-size="10.00" fill="#ffffff">0.03%</text>
<text text-anchor="middle" x="3339.5" y="-390" font-family="Arial" font-size="10.00" fill="#ffffff">(0.00%)</text>
<text text-anchor="middle" x="3339.5" y="-379" font-family="Arial" font-size="10.00" fill="#ffffff">1×</text>
</g>
<!-- wpa3_tester::iface::set_managed_mode() const -->
<g id="node27" class="node">
<title>wpa3_tester::iface::set_managed_mode() const</title>
<polygon fill="#0d0d73" stroke="#0d0d73" points="3617,-435 3426,-435 3426,-372 3617,-372 3617,-435"/>
<text text-anchor="middle" x="3521.5" y="-423" font-family="Arial" font-size="10.00" fill="#ffffff">wpa3_tester</text>
<text text-anchor="middle" x="3521.5" y="-412" font-family="Arial" font-size="10.00" fill="#ffffff">wpa3_tester::iface::set_managed_mode</text>
<text text-anchor="middle" x="3521.5" y="-401" font-family="Arial" font-size="10.00" fill="#ffffff">0.06%</text>
<text text-anchor="middle" x="3521.5" y="-390" font-family="Arial" font-size="10.00" fill="#ffffff">(0.00%)</text>
<text text-anchor="middle" x="3521.5" y="-379" font-family="Arial" font-size="10.00" fill="#ffffff">1×</text>
</g>
<!-- wpa3_tester::iface::set_monitor_mode() const -->
<g id="node28" class="node">
<title>wpa3_tester::iface::set_monitor_mode() const</title>
<polygon fill="#0d0d73" stroke="#0d0d73" points="3809,-435 3626,-435 3626,-372 3809,-372 3809,-435"/>
<text text-anchor="middle" x="3717.5" y="-423" font-family="Arial" font-size="10.00" fill="#ffffff">wpa3_tester</text>
<text text-anchor="middle" x="3717.5" y="-412" font-family="Arial" font-size="10.00" fill="#ffffff">wpa3_tester::iface::set_monitor_mode</text>
<text text-anchor="middle" x="3717.5" y="-401" font-family="Arial" font-size="10.00" fill="#ffffff">0.06%</text>
<text text-anchor="middle" x="3717.5" y="-390" font-family="Arial" font-size="10.00" fill="#ffffff">(0.00%)</text>
<text text-anchor="middle" x="3717.5" y="-379" font-family="Arial" font-size="10.00" fill="#ffffff">1×</text>
</g>
<!-- wpa3_tester::log(wpa3_tester::LogLevel, char const*, ...) -->
<g id="node29" class="node">
<title>wpa3_tester::log(wpa3_tester::LogLevel, char const*, ...)</title>
<polygon fill="#0d1575" stroke="#0d1575" points="3907,-435 3818,-435 3818,-372 3907,-372 3907,-435"/>
<text text-anchor="middle" x="3862.5" y="-423" font-family="Arial" font-size="10.00" fill="#ffffff">wpa3_tester</text>
<text text-anchor="middle" x="3862.5" y="-412" font-family="Arial" font-size="10.00" fill="#ffffff">wpa3_tester::log</text>
<text text-anchor="middle" x="3862.5" y="-401" font-family="Arial" font-size="10.00" fill="#ffffff">2.07%</text>
<text text-anchor="middle" x="3862.5" y="-390" font-family="Arial" font-size="10.00" fill="#ffffff">(0.05%)</text>
<text text-anchor="middle" x="3862.5" y="-379" font-family="Arial" font-size="10.00" fill="#ffffff">279×</text>
</g>
<!-- 0x00000000040297d0 -->
<g id="node30" class="node">
<title>0x00000000040297d0</title>
<polygon fill="lightgrey" stroke="black" points="3938,-312 3787,-312 3787,-289 3938,-289 3938,-312"/>
<text text-anchor="middle" x="3862.5" y="-296.8" font-family="Arial" font-size="14.00" fill="white">0x00000000040297d0</text>
</g>
<!-- wpa3_tester::log(wpa3_tester::LogLevel, char const*, ...)&#45;&gt;0x00000000040297d0 -->
<g id="edge15" class="edge">
<title>wpa3_tester::log(wpa3_tester::LogLevel, char const*, ...)&#45;&gt;0x00000000040297d0</title>
<path fill="none" stroke="#0d0e73" stroke-width="0.5" d="M3862.5,-371.92C3862.5,-353.3 3862.5,-330.36 3862.5,-315.83"/>
<polygon fill="#0d0e73" stroke="#0d0e73" stroke-width="0.5" points="3863.73,-315.83 3862.5,-312.33 3861.28,-315.83 3863.73,-315.83"/>
<text text-anchor="middle" x="3878" y="-355" font-family="Times,serif" font-size="10.00" fill="#0d0e73">0.20%</text>
<text text-anchor="middle" x="3878" y="-344" font-family="Times,serif" font-size="10.00" fill="#0d0e73">558×</text>
</g>
<!-- wpa3_tester::run_chs_attack(wpa3_tester::RunStatus&amp;) -->
<g id="node31" class="node">
<title>wpa3_tester::run_chs_attack(wpa3_tester::RunStatus&amp;)</title>
<polygon fill="#0b9c77" stroke="#0b9c77" points="4110,-435 3967,-435 3967,-372 4110,-372 4110,-435"/>
<text text-anchor="middle" x="4038.5" y="-423" font-family="Arial" font-size="10.00" fill="#ffffff">wpa3_tester</text>
<text text-anchor="middle" x="4038.5" y="-412" font-family="Arial" font-size="10.00" fill="#ffffff">wpa3_tester::run_chs_attack</text>
<text text-anchor="middle" x="4038.5" y="-401" font-family="Arial" font-size="10.00" fill="#ffffff">31.47%</text>
<text text-anchor="middle" x="4038.5" y="-390" font-family="Arial" font-size="10.00" fill="#ffffff">(0.00%)</text>
<text text-anchor="middle" x="4038.5" y="-379" font-family="Arial" font-size="10.00" fill="#ffffff">1×</text>
</g>
<!-- wpa3_tester::speed_observation_start(wpa3_tester::RunStatus&amp;) -->
<g id="node32" class="node">
<title>wpa3_tester::speed_observation_start(wpa3_tester::RunStatus&amp;)</title>
<polygon fill="#0d1074" stroke="#0d1074" points="4129.5,-332 3947.5,-332 3947.5,-269 4129.5,-269 4129.5,-332"/>
<text text-anchor="middle" x="4038.5" y="-320" font-family="Arial" font-size="10.00" fill="#ffffff">wpa3_tester</text>
<text text-anchor="middle" x="4038.5" y="-309" font-family="Arial" font-size="10.00" fill="#ffffff">wpa3_tester::speed_observation_start</text>
<text text-anchor="middle" x="4038.5" y="-298" font-family="Arial" font-size="10.00" fill="#ffffff">0.80%</text>
<text text-anchor="middle" x="4038.5" y="-287" font-family="Arial" font-size="10.00" fill="#ffffff">(0.00%)</text>
<text text-anchor="middle" x="4038.5" y="-276" font-family="Arial" font-size="10.00" fill="#ffffff">1×</text>
</g>
<!-- wpa3_tester::run_chs_attack(wpa3_tester::RunStatus&amp;)&#45;&gt;wpa3_tester::speed_observation_start(wpa3_tester::RunStatus&amp;) -->
<g id="edge16" class="edge">
<title>wpa3_tester::run_chs_attack(wpa3_tester::RunStatus&amp;)&#45;&gt;wpa3_tester::speed_observation_start(wpa3_tester::RunStatus&amp;)</title>
<path fill="none" stroke="#0d1074" stroke-width="0.5" d="M4038.5,-371.92C4038.5,-360.56 4038.5,-347.59 4038.5,-335.9"/>
<polygon fill="#0d1074" stroke="#0d1074" stroke-width="0.5" points="4039.73,-335.82 4038.5,-332.32 4037.28,-335.82 4039.73,-335.82"/>
<text text-anchor="middle" x="4054" y="-355" font-family="Times,serif" font-size="10.00" fill="#0d1074">0.80%</text>
<text text-anchor="middle" x="4054" y="-344" font-family="Times,serif" font-size="10.00" fill="#0d1074">1×</text>
</g>
<!-- wpa3_tester::setup_chs_attack(wpa3_tester::RunStatus&amp;) -->
<g id="node33" class="node">
<title>wpa3_tester::setup_chs_attack(wpa3_tester::RunStatus&amp;)</title>
<polygon fill="#0d1876" stroke="#0d1876" points="4272,-435 4119,-435 4119,-372 4272,-372 4272,-435"/>
<text text-anchor="middle" x="4195.5" y="-423" font-family="Arial" font-size="10.00" fill="#ffffff">wpa3_tester</text>
<text text-anchor="middle" x="4195.5" y="-412" font-family="Arial" font-size="10.00" fill="#ffffff">wpa3_tester::setup_chs_attack</text>
<text text-anchor="middle" x="4195.5" y="-401" font-family="Arial" font-size="10.00" fill="#ffffff">2.67%</text>
<text text-anchor="middle" x="4195.5" y="-390" font-family="Arial" font-size="10.00" fill="#ffffff">(0.00%)</text>
<text text-anchor="middle" x="4195.5" y="-379" font-family="Arial" font-size="10.00" fill="#ffffff">1×</text>
</g>
<!-- wpa3_tester::yaml_to_json[abi:cxx11](YAML::Node const&amp;)&#39;2&#45;&gt;wpa3_tester::yaml_to_json[abi:cxx11](YAML::Node const&amp;)&#39;2 -->
<g id="edge18" class="edge">
<title>wpa3_tester::yaml_to_json[abi:cxx11](YAML::Node const&amp;)&#39;2&#45;&gt;wpa3_tester::yaml_to_json[abi:cxx11](YAML::Node const&amp;)&#39;2</title>
<path fill="none" stroke="#0c688a" stroke-width="0.73" d="M1036.72,-100.91C1042.21,-99.37 1045.5,-97.23 1045.5,-94.5 1045.5,-92.53 1043.8,-90.88 1040.81,-89.53"/>
<polygon fill="#0c688a" stroke="#0c688a" stroke-width="0.73" points="1041.28,-88.1 1036.72,-88.09 1040.28,-90.94 1041.28,-88.1"/>
<text text-anchor="middle" x="1059" y="-92" font-family="Times,serif" font-size="10.00" fill="#0c688a">162×</text>
</g>
</g>
</svg>
